<?xml version="1.0"?>
<svg xmlns:rdf="http://www.w3.org/1999/02/22-rdf-syntax-ns#" xmlns="http://www.w3.org/2000/svg" xmlns:cc="http://creativecommons.org/ns#" xmlns:dc="http://purl.org/dc/elements/1.1/" xmlns:svg="http://www.w3.org/2000/svg" id="svg4956" viewBox="0 0 300.24 257.09" version="1.0">
  <g id="layer1" transform="translate(-204.17 -180.96)">
    <path id="path4952" stroke-linejoin="round" d="m410.68 194.38c-18.3-4.9-36.83 0.71-49.62 12.9-6.68-8.03-15.72-14.23-26.58-17.13-27.92-7.49-56.69 9.12-64.18 37.05-0.55 2.05-0.69 4.12-0.98 6.17-25.15-2.62-49.22 13.13-55.97 38.33-6.69 24.96 5.93 50.49 28.62 60.99-1.23 2.67-2.38 5.43-3.17 8.37-7.48 27.92 9.15 56.63 37.07 64.11 13.68 3.67 27.5 1.52 38.98-4.87 6.32 13.53 18.12 24.42 33.66 28.58 22.18 5.94 44.68-3.47 56.83-21.51 4.92 3.48 10.39 6.36 16.56 8.01 27.92 7.49 56.63-9.14 64.11-37.07 3.77-14.04 1.44-28.25-5.36-39.9 6.73-6.41 11.99-14.53 14.57-24.15 7.48-27.93-9.15-56.63-37.07-64.12-2.94-0.78-5.89-1.23-8.82-1.5 1.74-24.52-14.02-47.66-38.65-54.26z" stroke="#000" stroke-width="14.79" fill="#fff"/>
  </g>
  <metadata>
    <rdf:RDF>
      <cc:Work>
        <dc:format>image/svg+xml</dc:format>
        <dc:type rdf:resource="http://purl.org/dc/dcmitype/StillImage"/>
        <cc:license rdf:resource="http://creativecommons.org/licenses/publicdomain/"/>
        <dc:publisher>
          <cc:Agent rdf:about="http://openclipart.org/">
            <dc:title>Openclipart</dc:title>
          </cc:Agent>
        </dc:publisher>
        <dc:title>cloud</dc:title>
        <dc:date>2010-04-02T12:58:48</dc:date>
        <dc:description>Graphics by Jon Philips. From OCAL 0.18 release.</dc:description>
        <dc:source>http://openclipart.org/detail/35821/cloud-by-anonymous-35821</dc:source>
        <dc:creator>
          <cc:Agent>
            <dc:title>Anonymous</dc:title>
          </cc:Agent>
        </dc:creator>
        <dc:subject>
          <rdf:Bag>
            <rdf:li>black and white</rdf:li>
            <rdf:li>bubble</rdf:li>
            <rdf:li>cartoon</rdf:li>
            <rdf:li>clip art</rdf:li>
            <rdf:li>clipart</rdf:li>
            <rdf:li>cloud</rdf:li>
            <rdf:li>comic</rdf:li>
          </rdf:Bag>
        </dc:subject>
      </cc:Work>
      <cc:License rdf:about="http://creativecommons.org/licenses/publicdomain/">
        <cc:permits rdf:resource="http://creativecommons.org/ns#Reproduction"/>
        <cc:permits rdf:resource="http://creativecommons.org/ns#Distribution"/>
        <cc:permits rdf:resource="http://creativecommons.org/ns#DerivativeWorks"/>
      </cc:License>
    </rdf:RDF>
  </metadata>
</svg>
